<svg width="130" height="50" viewBox="0 0 130 50" fill="none" xmlns="http://www.w3.org/2000/svg">
<path d="M8.5 0H3.2L0 4.5L14.3 46.8L17.6 49.1H22.9L26.1 44.6L11.8 2.3L8.5 0Z" fill="#167073"/>
<path d="M45.3008 0H40.0008L36.8008 4.5L51.1008 46.8L54.3008 49.1H59.6008L62.8008 44.6L48.5008 2.3L45.3008 0Z" fill="#167073"/>
<path d="M26.8984 0H21.5984L18.3984 4.5L30.0984 38.8L33.2984 41.1H38.5984L41.8984 36.6L30.0984 2.3L26.8984 0Z" fill="#167073"/>
<path d="M111.101 8.6002L109.401 3.5002L106.201 1.2002L61.5008 1.3002L58.3008 5.8002L60.0008 10.8002L63.3008 13.1002H107.901L111.101 8.6002Z" fill="#167073"/>
<path d="M128.102 38.3L124.802 36L73.4016 36.1L70.1016 40.6L71.8016 45.6L75.1016 47.9H126.602L129.802 43.4L128.102 38.3Z" fill="#167073"/>
<path d="M75.8984 23.1996L77.5984 28.1996L80.7984 30.4996H116.998L120.198 25.9996L118.498 20.8996L115.298 18.5996L79.0984 18.6996L75.8984 23.1996Z" fill="#167073"/>
</svg>
