<?xml version="1.0" encoding="utf-8"?>
<!-- Generator: Adobe Illustrator 25.2.1, SVG Export Plug-In . SVG Version: 6.00 Build 0)  -->
<svg version="1.1" id="Layer_1" xmlns="http://www.w3.org/2000/svg" xmlns:xlink="http://www.w3.org/1999/xlink" x="0px" y="0px"
	 viewBox="0 0 1000 1000" style="enable-background:new 0 0 1000 1000;" xml:space="preserve">
<style type="text/css">
	.st0{fill:url(#SVGID_1_);}
	.st1{fill:#FFFFFF;}
</style>
<g>
	<linearGradient id="SVGID_1_" gradientUnits="userSpaceOnUse" x1="79.7148" y1="516.3215" x2="919" y2="516.3215">
		<stop  offset="0" style="stop-color:#00DD90"/>
		<stop  offset="0.1927" style="stop-color:#00DE97"/>
		<stop  offset="0.4759" style="stop-color:#00E1AB"/>
		<stop  offset="0.8132" style="stop-color:#00E5CB"/>
		<stop  offset="1" style="stop-color:#00E8E0"/>
	</linearGradient>
	<circle class="st0" cx="499.36" cy="516.32" r="419.64"/>
	<path class="st1" d="M749.84,328.79c-8.44-7.96-25.98-18-48.4,4.38L510.26,524.3c-27.32,27.34-54.56,54.74-82.29,82.62
		l-33.94,34.13l-30.32-33.07c-25.98-28.33-51.06-55.68-76.26-82.93c-8.73-9.44-17.92-14.34-27.27-14.6
		c-8.17-0.7-16.02,3.17-23.14,10.1c-14.57,14.1-14.2,32.4,0.99,48.94c42.56,46.37,85.26,92.64,128.25,138.58
		c8.01,8.56,16.63,12.96,25.63,13.13c0.16,0,0.35,0.01,0.51,0.01c8.97-0.01,17.79-4.26,26.2-12.63
		c85.15-84.85,170.39-169.65,255.6-254.46l73.1-72.73l1.82-1.93C765.11,361.87,765.35,343.4,749.84,328.79z"/>
</g>
</svg>
