<?xml version="1.0" encoding="utf-8"?>
<!-- Generator: Adobe Illustrator 25.2.1, SVG Export Plug-In . SVG Version: 6.00 Build 0)  -->
<svg version="1.1" id="Layer_1" xmlns="http://www.w3.org/2000/svg" xmlns:xlink="http://www.w3.org/1999/xlink" x="0px" y="0px"
	 viewBox="0 0 1000 1000" style="enable-background:new 0 0 1000 1000;" xml:space="preserve">
<style type="text/css">
	.st0{fill:url(#SVGID_1_);}
	.st1{fill:url(#SVGID_2_);}
</style>
<g>
	<linearGradient id="SVGID_1_" gradientUnits="userSpaceOnUse" x1="254.3811" y1="503.8613" x2="734.7523" y2="503.8613">
		<stop  offset="0" style="stop-color:#00DD90"/>
		<stop  offset="0.1927" style="stop-color:#00DE97"/>
		<stop  offset="0.4759" style="stop-color:#00E1AB"/>
		<stop  offset="0.8132" style="stop-color:#00E5CB"/>
		<stop  offset="1" style="stop-color:#00E8E0"/>
	</linearGradient>
	<path class="st0" d="M724.46,331.83c-7.58-7.14-23.33-16.16-43.47,3.93L509.32,507.4c-24.54,24.55-49,49.16-73.9,74.2l-30.48,30.65
		l-27.23-29.7c-23.33-25.44-45.85-50-68.48-74.47c-7.84-8.48-16.09-12.88-24.49-13.11c-7.34-0.63-14.38,2.85-20.78,9.07
		c-13.09,12.66-12.75,29.09,0.89,43.95c38.22,41.64,76.57,83.19,115.17,124.45c7.19,7.69,14.94,11.64,23.02,11.79
		c0.14,0,0.31,0.01,0.46,0.01c8.06-0.01,15.97-3.82,23.53-11.34c76.47-76.19,153.01-152.35,229.53-228.51l65.64-65.31l1.64-1.73
		C738.17,361.54,738.39,344.95,724.46,331.83z"/>
	<g>
		<linearGradient id="SVGID_2_" gradientUnits="userSpaceOnUse" x1="98.0588" y1="500.2353" x2="901" y2="500.2353">
			<stop  offset="0" style="stop-color:#00DD90"/>
			<stop  offset="0.1927" style="stop-color:#00DE97"/>
			<stop  offset="0.4759" style="stop-color:#00E1AB"/>
			<stop  offset="0.8132" style="stop-color:#00E5CB"/>
			<stop  offset="1" style="stop-color:#00E8E0"/>
		</linearGradient>
		<path class="st1" d="M499.53,901.71c-221.37,0-401.47-180.1-401.47-401.47S278.16,98.76,499.53,98.76S901,278.86,901,500.24
			S720.9,901.71,499.53,901.71z M499.53,148.03c-194.22,0-352.21,158-352.21,352.21s157.99,352.21,352.21,352.21
			s352.21-158,352.21-352.21S693.75,148.03,499.53,148.03z"/>
	</g>
</g>
</svg>
