<?xml version="1.0" encoding="utf-8"?>
<!-- Generator: Adobe Illustrator 25.2.1, SVG Export Plug-In . SVG Version: 6.00 Build 0)  -->
<svg version="1.1" id="Layer_1" xmlns="http://www.w3.org/2000/svg" xmlns:xlink="http://www.w3.org/1999/xlink" x="0px" y="0px"
	 viewBox="0 0 1000 1000" style="enable-background:new 0 0 1000 1000;" xml:space="preserve">
<style type="text/css">
	.st0{fill:url(#SVGID_1_);}
</style>
<g id="_x32_CXn6F.tif_3_">
	<g>
		<linearGradient id="SVGID_1_" gradientUnits="userSpaceOnUse" x1="39.6276" y1="500.4027" x2="986.5849" y2="500.4027">
			<stop  offset="0" style="stop-color:#00DD90"/>
			<stop  offset="0.1927" style="stop-color:#00DE97"/>
			<stop  offset="0.4759" style="stop-color:#00E1AB"/>
			<stop  offset="0.8132" style="stop-color:#00E5CB"/>
			<stop  offset="1" style="stop-color:#00E8E0"/>
		</linearGradient>
		<path class="st0" d="M986.58,448.62c-5.24,18.88-8.32,38.71-16.11,56.48c-26,59.28-71.76,95.63-134.95,109.57
			c-6.82,1.51-8.99,3.76-8.94,10.67c0.29,42.52,0.12,85.04,0.15,127.57c0.03,37.17-14.71,66.31-47.29,85.15
			c-58.44,33.8-133.73-7.74-136.66-75.2c-0.25-5.82-0.03-11.67-0.03-17.83c-69.64-27.19-138.81-54.2-209.63-81.85
			c6.93,26.05,13.35,50.33,19.84,74.6c17.48,65.37,35.04,130.72,52.47,196.09c6.51,24.41-5.48,39.87-30.84,39.91
			c-43.45,0.06-86.89,0.04-130.34,0.01c-18.7-0.01-27.66-6.74-32.78-24.68c-28.26-99.08-56.54-198.15-84.55-297.29
			c-1.81-6.4-4.59-8.55-11.13-9.37c-90.17-11.4-163.64-88.44-174.71-179.8C28.43,358.05,98.79,259.16,201.89,237.25
			c15.53-3.3,31.73-4.54,47.64-4.77c43.44-0.63,86.89-0.17,130.34-0.3c3.9-0.01,8.07-0.46,11.66-1.86
			c82.23-32.09,164.4-64.33,246.57-96.56c1.41-0.55,2.72-1.36,3.93-1.98c0.61-9.43,0.36-18.76,1.93-27.78
			c6.79-39.13,34.97-67.5,74.02-75.37c1.44-0.29,2.79-1.07,4.18-1.62c8.63,0,17.26,0,25.89,0c1.35,0.59,2.64,1.41,4.05,1.72
			c42.39,9.31,71.72,41.4,73.68,84.5c1.8,39.65,0.75,79.43,0.95,119.15c0.02,3.93,0,7.85,0,10.8c1.29,1.2,1.48,1.53,1.73,1.59
			c3,0.69,6.02,1.27,9.01,2c74.19,17.95,121.55,63.99,142.8,137.01c2.99,10.26,4.25,21.02,6.31,31.55
			C986.58,426.43,986.58,437.52,986.58,448.62z M642.22,685.12c0-164.84,0-328.56,0-492.9c-1.97,0.56-3.45,0.84-4.82,1.38
			c-70.43,27.62-140.81,55.36-211.33,82.74c-6.27,2.43-6.23,6.39-6.23,11.47c0.05,100.44,0.12,200.88-0.15,301.32
			c-0.02,7.26,2.78,10.05,9.01,12.46c51.34,19.85,102.56,40.01,153.81,60.09C602.21,669.4,621.88,677.14,642.22,685.12z
			 M698.11,438.17c0,72.09,0,144.19,0,216.28c0,34.51-0.12,69.01,0.07,103.52c0.09,16.49,10.04,29.78,25.36,34.86
			c14.38,4.77,29.55-0.14,39.67-12.44c7.19-8.74,8.08-18.93,8.07-29.58c-0.04-172.23-0.02-344.45-0.02-516.68
			c0-37.28,0.21-74.56-0.1-111.84c-0.2-23.83-15.71-40.23-36.99-39.79c-19.35,0.41-36.51,16.38-36.35,40.47
			C698.5,228.04,698.11,333.11,698.11,438.17z M220.92,290.33C151.25,299.4,95.4,364.86,95.28,436.98
			c-0.12,74.55,54.9,140.35,125.63,149.6C220.92,487.8,220.92,389.1,220.92,290.33z M363.66,588.74c0-100.64,0-200.57,0-300.24
			c-29.18,0-57.64,0-86.1,0c0,100.45,0,200.14,0,300.24C306.39,588.74,334.65,588.74,363.66,588.74z M443.67,918.01
			c-24.44-91.66-48.63-182.4-72.73-272.82c-29.78,0-58.55,0-88.23,0c25.97,91.41,51.72,182.06,77.51,272.82
			C387.89,918.01,414.93,918.01,443.67,918.01z M827.46,302.8c0,85.41,0,170.81,0,256.33c60.05-9.66,107.89-73.1,103.31-136.12
			C926.43,363.24,875.13,303.32,827.46,302.8z"/>
	</g>
</g>
</svg>
