<svg width="20" height="21" viewBox="0 0 20 21" fill="none" xmlns="http://www.w3.org/2000/svg">
<path d="M10 20.2656C15.5228 20.2656 20 15.7885 20 10.2656C20 4.74278 15.5228 0.265625 10 0.265625C4.47715 0.265625 0 4.74278 0 10.2656C0 15.7885 4.47715 20.2656 10 20.2656Z" fill="#166F73"/>
<path d="M14.584 9.5839H10.7238V5.72377C10.7238 5.32168 10.4022 5 10.0001 5C9.59797 5 9.2763 5.32168 9.2763 5.72377V9.5839H5.41615C5.01406 9.5839 4.69238 9.90558 4.69238 10.3077C4.69238 10.7098 5.01406 11.0314 5.41615 11.0314H9.2763V14.8916C9.2763 15.2937 9.59797 15.6154 10.0001 15.6154C10.4022 15.6154 10.7238 15.2937 10.7238 14.8916V11.0314H14.584C14.9861 11.0314 15.3077 10.7098 15.3077 10.3077C15.3077 9.90558 14.9459 9.5839 14.584 9.5839Z" fill="white"/>
</svg>
