<?xml version="1.0" encoding="utf-8"?>
<!-- Generator: Adobe Illustrator 25.2.1, SVG Export Plug-In . SVG Version: 6.00 Build 0)  -->
<svg version="1.1" id="Layer_1" xmlns="http://www.w3.org/2000/svg" xmlns:xlink="http://www.w3.org/1999/xlink" x="0px" y="0px"
	 viewBox="0 0 1000 1000" style="enable-background:new 0 0 1000 1000;" xml:space="preserve">
<style type="text/css">
	.st0{fill:#D10023;}
</style>
<path class="st0" d="M883.15,780.68L602.16,499.69L883.15,218.7c28.21-28.21,28.21-73.96,0-102.18
	c-28.21-28.21-73.96-28.21-102.18,0L499.98,397.51L219,116.53c-28.21-28.21-73.96-28.21-102.18,0s-28.21,73.96,0,102.18
	l280.99,280.99L116.82,780.68c-28.21,28.21-28.21,73.96,0,102.18c28.21,28.21,73.96,28.21,102.18,0l280.99-280.99l280.99,280.99
	c28.21,28.21,73.96,28.21,102.18,0C911.36,854.64,911.36,808.89,883.15,780.68z"/>
</svg>
