<?xml version="1.0" encoding="utf-8"?>
<!-- Generator: Adobe Illustrator 25.2.1, SVG Export Plug-In . SVG Version: 6.00 Build 0)  -->
<svg version="1.1" id="Layer_1" xmlns="http://www.w3.org/2000/svg" xmlns:xlink="http://www.w3.org/1999/xlink" x="0px" y="0px"
	 viewBox="0 0 1000 1000" style="enable-background:new 0 0 1000 1000;" xml:space="preserve">
<style type="text/css">
	.st0{fill:url(#SVGID_1_);}
	.st1{fill:url(#SVGID_2_);}
</style>
<g id="SSwCJi.tif_1_">
	<g>
		<linearGradient id="SVGID_1_" gradientUnits="userSpaceOnUse" x1="65.9561" y1="498.1386" x2="933" y2="498.1386">
			<stop  offset="0" style="stop-color:#00DD90"/>
			<stop  offset="0.1927" style="stop-color:#00DE97"/>
			<stop  offset="0.4759" style="stop-color:#00E1AB"/>
			<stop  offset="0.8132" style="stop-color:#00E5CB"/>
			<stop  offset="1" style="stop-color:#00E8E0"/>
		</linearGradient>
		<path class="st0" d="M481.73,64.78c20.59,1.43,38.37,9.92,45.21,33.26c1.06,3.63,1.59,7.21,1.27,10.71
			c-1.97,21.65-23.71,20.35-41.32,21.23c-173.96,8.7-318.54,132.35-349.95,299c-31.26,165.83,54.96,331.79,210.22,404.65
			c221.42,103.9,491.05-47.54,517.12-290.49c1.44-13.41,3.15-26.83,3.54-40.29c0.67-22.93,11.74-38.49,34.55-37.1
			c22.87,1.39,31.32,18.84,30.6,41.19c-2.37,73.5-20.46,142.68-57.5,206.31C781.7,874.33,600.67,957.71,418.14,924.52
			C240.1,892.15,101.68,747.84,71.29,563.15c-0.05-0.32-0.11-0.63-0.19-0.94c-3.95-17.2-5.15-34.92-5.15-52.56v-27.78
			c0-18.27,2.13-36.44,5.56-54.38c0.01-0.06,0.02-0.13,0.04-0.19C99.3,279.06,180.74,170.75,316.94,106.91
			c30.81-14.44,63.93-22.39,96.6-31.38C432.24,70.39,458.74,63.18,481.73,64.78z"/>
		<linearGradient id="SVGID_2_" gradientUnits="userSpaceOnUse" x1="271.6869" y1="413.59" x2="917.468" y2="413.59">
			<stop  offset="0" style="stop-color:#00DD90"/>
			<stop  offset="0.1927" style="stop-color:#00DE97"/>
			<stop  offset="0.4759" style="stop-color:#00E1AB"/>
			<stop  offset="0.8132" style="stop-color:#00E5CB"/>
			<stop  offset="1" style="stop-color:#00E8E0"/>
		</linearGradient>
		<path class="st1" d="M470.66,575.45c51.35-51.6,100.73-101.37,150.28-150.96c78.92-79,157.98-157.85,236.9-236.84
			c14.82-14.83,31.52-20.89,48.14-5.23c17.19,16.19,13.72,34.29-1.35,50.89c-0.65,0.71-1.3,1.43-1.98,2.1
			C766.87,370.53,631.07,505.62,495.35,640.8c-17.92,17.85-35.96,17.39-52.63-0.41c-53.29-56.91-106.15-114.21-158.87-171.65
			c-14.09-15.36-17.62-33.27-1.59-48.79c17.48-16.93,35.36-10.92,50.32,5.24C377.67,473.92,422.45,522.94,470.66,575.45z"/>
	</g>
</g>
</svg>
