<?xml version="1.0" encoding="utf-8"?>
<!-- Generator: Adobe Illustrator 25.2.1, SVG Export Plug-In . SVG Version: 6.00 Build 0)  -->
<svg version="1.1" id="Layer_1" xmlns="http://www.w3.org/2000/svg" xmlns:xlink="http://www.w3.org/1999/xlink" x="0px" y="0px"
	 viewBox="0 0 1000 1000" style="enable-background:new 0 0 1000 1000;" xml:space="preserve">
<style type="text/css">
	.st0{fill:url(#SVGID_1_);}
</style>
<g id="QWx7cW.tif_6_">
	<g>
		<linearGradient id="SVGID_1_" gradientUnits="userSpaceOnUse" x1="276.2677" y1="507.3528" x2="728.3173" y2="507.3528">
			<stop  offset="0" style="stop-color:#00DD90"/>
			<stop  offset="0.1927" style="stop-color:#00DE97"/>
			<stop  offset="0.4759" style="stop-color:#00E1AB"/>
			<stop  offset="0.8132" style="stop-color:#00E5CB"/>
			<stop  offset="1" style="stop-color:#00E8E0"/>
		</linearGradient>
		<path class="st0" d="M340.09,97.01c10.04-6.4,19.8-13.3,30.16-19.11c57.24-32.11,134.76-24.12,184.91,18.25
			c40.78,34.46,60.8,78.52,60.61,131.4c-0.61,167.18-1.61,334.36-2.76,501.53c-0.43,62.91-46.23,110.64-108.85,114.46
			c-59.57,3.63-114.52-45.55-115.2-105.22c-0.79-69.38,0.29-138.78,0.64-208.17c0.41-80.07,0.91-160.13,1.38-240.2
			c0.01-2.12,0.1-4.25,0.16-6.77c18.47,0.44,36.74,0.87,57,1.35c-0.22,1.7-1.03,5.01-1.05,8.32c-0.87,145.4-1.7,290.8-2.46,436.2
			c-0.16,31.29,20.54,55.34,49.75,58.15c33.67,3.24,61.88-22.78,62.36-57.93c0.4-29.67,0.32-59.36,0.49-89.03
			c0.78-136.86,1.53-273.72,2.43-410.57c0.18-26.96-6.75-51.47-23.62-72.73c-32-40.35-84.76-54.28-131.81-33.22
			c-45.24,20.25-68.59,56.41-69.03,105.96c-1.12,127.67-1.57,255.35-2.29,383.03c-0.22,39.29-0.53,78.57-0.63,117.86
			c-0.11,48.04,16.15,89.63,51.12,122.82c73.51,69.76,190.28,59.62,251.12-21.27c23.39-31.1,34.51-66.16,34.7-104.98
			c0.71-144.12,1.57-288.24,2.38-432.35c0.22-39.5,0.44-79,0.67-118.5c0.01-2.12,0.09-4.23,0.14-6.24
			c18.52,0.31,36.78,0.62,55.76,0.94c0.01,0.24,0.17,2.29,0.16,4.34c-1.03,192.16-1.84,384.32-3.59,576.47
			c-0.14,15.18-5.68,30.69-10.68,45.37C687.73,874.32,635.71,926.15,557,947.77c-70.2,19.28-135.95,6.54-194.23-38.06
			c-47.44-36.3-74.58-84.8-84.42-143.66c-1.84-11.03-2.13-21.79-2.08-32.69c0.81-168.03,1.82-336.06,2.65-504.09
			c0.2-39.88,12.68-75.32,37.11-106.7c0.65-0.83,0.95-1.94,1.41-2.92C324.99,112.11,332.54,104.56,340.09,97.01z"/>
	</g>
</g>
</svg>
