<?xml version="1.0" encoding="utf-8"?>
<!-- Generator: Adobe Illustrator 25.2.1, SVG Export Plug-In . SVG Version: 6.00 Build 0)  -->
<svg version="1.1" id="Layer_1" xmlns="http://www.w3.org/2000/svg" xmlns:xlink="http://www.w3.org/1999/xlink" x="0px" y="0px"
	 viewBox="0 0 1000 1000" style="enable-background:new 0 0 1000 1000;" xml:space="preserve">
<style type="text/css">
	.st0{fill:#D10023;}
</style>
<g>
	<g>
		<path class="st0" d="M499.53,901.47c-221.24,0-401.24-179.99-401.24-401.24S278.29,99,499.53,99s401.24,179.99,401.24,401.24
			S720.77,901.47,499.53,901.47z M499.53,148.23c-194.1,0-352,157.91-352,352s157.9,352,352,352s352-157.91,352-352
			S693.63,148.23,499.53,148.23z"/>
	</g>
	<path class="st0" d="M642.19,604.86L537.57,500.24l104.62-104.62c10.5-10.5,10.5-27.54,0-38.04s-27.54-10.5-38.04,0L499.53,462.19
		L394.9,357.57c-10.5-10.5-27.54-10.5-38.04,0s-10.5,27.54,0,38.04l104.62,104.62L356.86,604.86c-10.5,10.5-10.5,27.54,0,38.04
		s27.54,10.5,38.04,0l104.62-104.62L604.15,642.9c10.5,10.5,27.54,10.5,38.04,0S652.7,615.36,642.19,604.86z"/>
</g>
</svg>
