<svg width="20" height="18" viewBox="0 0 20 18" fill="none" xmlns="http://www.w3.org/2000/svg">
<path d="M20 15.9136C20 16.4374 19.7893 16.9399 19.4142 17.3103C19.0391 17.6807 18.5304 17.8889 18 17.8889H2C1.46957 17.8889 0.960859 17.6807 0.585786 17.3103C0.210714 16.9399 0 16.4374 0 15.9136V2.08639C0 1.56251 0.210714 1.06008 0.585786 0.689638C0.960859 0.319196 1.46957 0.111084 2 0.111084H6.2126C6.70493 0.111084 7.16509 0.355656 7.44053 0.763717L8.55947 2.42141C8.83491 2.82947 9.29507 3.07405 9.7874 3.07405H18C18.5304 3.07405 19.0391 3.28216 19.4142 3.6526C19.7893 4.02304 20 4.52547 20 5.04936V15.9136Z" fill="#166F73"/>
</svg>
