<?xml version="1.0" encoding="utf-8"?>
<!-- Generator: Adobe Illustrator 25.2.1, SVG Export Plug-In . SVG Version: 6.00 Build 0)  -->
<svg version="1.1" id="Layer_1" xmlns="http://www.w3.org/2000/svg" xmlns:xlink="http://www.w3.org/1999/xlink" x="0px" y="0px"
	 viewBox="0 0 1000 1000" style="enable-background:new 0 0 1000 1000;" xml:space="preserve">
<style type="text/css">
	.st0{fill:#CCCCCC;}
</style>
<g id="XsPV3b.tif_1_">
	<g>
		<path class="st0" d="M499.24,30.27c80.24-0.47,160.48,19.14,231.91,59.16c117.21,65.66,202.6,181.13,230.38,312.64
			c11.33,53.65,13.03,109.18,5.35,163.47c-32.03,226.38-216.76,393.38-448.55,405.5c-139.69,7.3-276.96-53.43-369.62-157.43
			C44.89,697.06,3.1,531.5,44.38,380.49c34.46-126.05,117.84-233.15,233.5-294.62C346.61,49.34,422.92,30.72,499.24,30.27z
			 M107.52,498.4c1.92,222.34,177.48,397.2,395.9,394.32C719.43,889.86,894,714.55,893.11,501.37
			c-0.92-219.28-175.98-394.86-393.17-394.34C283,107.55,105.68,284.4,107.52,498.4z"/>
		<path class="st0" d="M368.67,288.35c50.09-40.97,117.04-54.66,179.71-38.53c13.1,3.37,25.9,7.36,37.85,13.12
			c70.15,33.83,84.87,116.68,31.14,173.07c-21.4,22.46-48.52,39.49-73.08,58.94c-25.05,19.84-43.46,41.14-32.2,77.54
			c2.84,9.19-6.13,30.24-13.68,32.51c-11,3.3-29.54-1.5-37.98-9.82c-25.01-24.66-24.13-73.01,1.32-103.95
			c13.73-16.69,31.92-29.78,48.51-44.02c12.68-10.87,26.58-20.36,38.91-31.59c18.49-16.84,25.98-38.28,18.76-62.54
			c-7.66-25.72-27.4-38.44-53-42.85c-40.62-6.99-77.06,2.63-108.06,29.64c-16.95,14.77-34.76,23.54-51.82,4.28
			c-17.93-20.25-7.61-37.87,10.72-53.4C366.74,289.95,367.71,289.14,368.67,288.35z"/>
		<path class="st0" d="M537.1,709.7c0.8,25.79-20.82,48.04-46.72,48.09c-24.6,0.04-45.39-20.24-46.34-45.21
			c-0.96-25.14,21.73-48.88,46.64-48.79C514.17,663.88,536.36,685.83,537.1,709.7z"/>
	</g>
</g>
</svg>
