<?xml version="1.0" encoding="utf-8"?>
<!-- Generator: Adobe Illustrator 25.2.1, SVG Export Plug-In . SVG Version: 6.00 Build 0)  -->
<svg version="1.1" id="Layer_1" xmlns="http://www.w3.org/2000/svg" xmlns:xlink="http://www.w3.org/1999/xlink" x="0px" y="0px"
	 viewBox="0 0 1000 1000" style="enable-background:new 0 0 1000 1000;" xml:space="preserve">
<style type="text/css">
	.st0{fill:url(#SVGID_1_);}
	.st1{fill:url(#SVGID_2_);}
	.st2{fill:url(#SVGID_3_);}
</style>
<g id="XsPV3b.tif_4_">
	<g>
		<linearGradient id="SVGID_1_" gradientUnits="userSpaceOnUse" x1="67.03" y1="505.3521" x2="960.1962" y2="505.3521">
			<stop  offset="0" style="stop-color:#00DD90"/>
			<stop  offset="0.1927" style="stop-color:#00DE97"/>
			<stop  offset="0.4759" style="stop-color:#00E1AB"/>
			<stop  offset="0.8132" style="stop-color:#00E5CB"/>
			<stop  offset="1" style="stop-color:#00E8E0"/>
		</linearGradient>
		<path class="st0" d="M512.82,59.21c165.04-0.73,322.07,93.23,398.49,241.9c41.89,81.49,57.32,175.01,44.49,265.69
			c-30.34,214.44-205.33,372.64-424.89,384.11C322.15,961.83,129.94,816.34,79.65,609.37c-4.14-17.05-8.41-34.07-12.62-51.11
			c0-35.76,0-71.52,0-107.28c1.96-6.55,4.52-12.98,5.78-19.66C109.43,236.95,259.82,89.54,457.64,63.01
			C476.07,60.54,494.49,59.29,512.82,59.21z M141.78,503.22C143.6,713.83,309.9,879.47,516.8,876.74
			c204.62-2.7,369.97-168.77,369.13-370.7C885.05,298.32,719.22,132,513.49,132.49C308,132.98,140.03,300.51,141.78,503.22z"/>
		<linearGradient id="SVGID_2_" gradientUnits="userSpaceOnUse" x1="367.4229" y1="433.3525" x2="655.4887" y2="433.3525">
			<stop  offset="0" style="stop-color:#00DD90"/>
			<stop  offset="0.1927" style="stop-color:#00DE97"/>
			<stop  offset="0.4759" style="stop-color:#00E1AB"/>
			<stop  offset="0.8132" style="stop-color:#00E5CB"/>
			<stop  offset="1" style="stop-color:#00E8E0"/>
		</linearGradient>
		<path class="st1" d="M389.15,304.25c47.44-38.81,110.87-51.77,170.23-36.5c12.41,3.19,24.54,6.97,35.85,12.43
			c66.45,32.04,80.4,110.52,29.5,163.94c-20.28,21.28-45.96,37.41-69.22,55.83c-23.73,18.79-41.16,38.97-30.5,73.45
			c2.69,8.71-5.81,28.65-12.96,30.79c-10.42,3.13-27.98-1.42-35.98-9.31c-23.69-23.36-22.86-69.16,1.25-98.47
			c13-15.81,30.24-28.21,45.95-41.7c12.01-10.3,25.18-19.29,36.86-29.92c17.52-15.95,24.61-36.26,17.77-59.24
			c-7.25-24.36-25.96-36.41-50.21-40.59c-38.48-6.62-72.99,2.49-102.36,28.08c-16.06,13.99-32.93,22.3-49.08,4.05
			c-16.99-19.18-7.21-35.87,10.15-50.58C387.32,305.76,388.24,305,389.15,304.25z"/>
		<linearGradient id="SVGID_3_" gradientUnits="userSpaceOnUse" x1="460.5182" y1="704.4108" x2="548.7158" y2="704.4108">
			<stop  offset="0" style="stop-color:#00DD90"/>
			<stop  offset="0.1927" style="stop-color:#00DE97"/>
			<stop  offset="0.4759" style="stop-color:#00E1AB"/>
			<stop  offset="0.8132" style="stop-color:#00E5CB"/>
			<stop  offset="1" style="stop-color:#00E8E0"/>
		</linearGradient>
		<path class="st2" d="M548.7,703.38c0.75,24.43-19.72,45.51-44.25,45.55c-23.3,0.04-43-19.17-43.9-42.82
			c-0.91-23.81,20.59-46.3,44.18-46.21C526.97,659.97,548,680.77,548.7,703.38z"/>
	</g>
</g>
</svg>
