<?xml version="1.0" encoding="utf-8"?>
<!-- Generator: Adobe Illustrator 25.2.1, SVG Export Plug-In . SVG Version: 6.00 Build 0)  -->
<svg version="1.1" id="Layer_1" xmlns="http://www.w3.org/2000/svg" xmlns:xlink="http://www.w3.org/1999/xlink" x="0px" y="0px"
	 viewBox="0 0 1000 1000" style="enable-background:new 0 0 1000 1000;" xml:space="preserve">
<style type="text/css">
	.st0{fill:#167073;}
</style>
<g id="V00wnl.tif_16_">
	<g>
		<path class="st0" d="M9.33,745.64c4.56-50.14,31.29-98.05,80.55-126.11c5.93-3.38,9.27-16.35,9.05-24.76
			c-4.64-174.05,68.78-303.04,221.09-387.73c7.5-4.17,14.06-15.69,15.3-24.59C348.07,91.05,412.62,31.07,499.86,31
			c87.38-0.07,151.41,59.13,165.18,150.92c1.44,9.62,9.32,21.64,17.7,26.35c149.6,84.09,221.75,211.6,219.08,382.86
			c-0.18,11.3,7.57,26.82,16.67,33.54c74.88,55.26,96.55,146.86,51.04,223.25c-45.03,75.58-137.1,99.48-221.3,59.26
			c-10.16-4.86-27.59-4.1-37.47,1.47c-140.74,79.42-280.61,79.53-421.24-0.13c-9.33-5.29-25.35-7.17-34.65-2.86
			c-57.53,26.72-126.42,31.09-179.16-8.71C26.56,859.84,4.26,801.36,9.33,745.64z M312.61,850.01
			c95.97,78.34,286.31,77.57,375.17-1.07c-30.41-57.15-33.27-114.83,0.99-171.55c34.16-56.54,88.43-77.85,150.84-80.6
			c16.74-136.53-69.43-289.5-188.31-334.63c-32.7,59.44-82.3,96.39-152.03,96.22c-69.78-0.17-118.51-38.58-151.36-97.3
			C222.97,318.46,139.34,469.8,161.16,595.64C312.13,618.12,371.03,715.64,312.61,850.01z M171.66,867.98
			c59.25-0.05,105.75-46.83,105.21-105.83c-0.52-57.03-47.02-104.03-103.89-105.02c-57.74-1-106.35,46.92-106.79,105.3
			C65.73,821.72,112.01,868.03,171.66,867.98z M934.1,763.31c-0.07-58.43-48.18-106.65-105.93-106.18
			c-58.19,0.47-105.41,48.84-104.81,107.34c0.59,57.5,46.58,103.13,104.32,103.51C887.29,868.37,934.17,822.26,934.1,763.31z
			 M499.54,89.04c-59.29,0.33-105.48,47.79-104.59,107.44c0.85,57.07,48.93,104.28,105.76,103.85
			c58.5-0.45,105.53-49.14,104.62-108.3C604.44,134.31,557.6,88.72,499.54,89.04z"/>
	</g>
</g>
</svg>
