<svg width="28" height="28" viewBox="0 0 28 28" fill="none" xmlns="http://www.w3.org/2000/svg">
<path d="M14.75 7.17725L8.39161 7.17725M14.75 9.02152L8.39161 9.02152M14.75 10.8658L8.39161 10.8658" stroke="#B2B2B2" stroke-linecap="round" stroke-linejoin="round"/>
<path d="M18 3.19042L18 13.4741L6 13.4741L6 2.99998L7.67442 3.95217L8.7907 2.99998L9.90698 3.95217L11.0233 2.99998L12.1395 3.95217L13.5349 2.99998L14.3721 3.95217L15.4884 2.99998L16.8837 3.76173L18 3.19042Z" stroke="#B2B2B2" stroke-width="1.5" stroke-linecap="round" stroke-linejoin="round"/>
<path d="M6 13.875H22.2121C22.9025 13.875 23.4621 14.4346 23.4621 15.125V24.3409H4.75V15.125C4.75 14.4346 5.30964 13.875 6 13.875Z" stroke="#B2B2B2" stroke-width="1.5"/>
<path d="M19.0625 11.7837H22.3352C22.6114 11.7837 22.8352 12.0075 22.8352 12.2837V13.5451H18.5625V12.2837C18.5625 12.0075 18.7864 11.7837 19.0625 11.7837Z" stroke="#B2B2B2"/>
</svg>
