<?xml version="1.0" encoding="utf-8"?>
<!-- Generator: Adobe Illustrator 25.2.1, SVG Export Plug-In . SVG Version: 6.00 Build 0)  -->
<svg version="1.1" id="Layer_1" xmlns="http://www.w3.org/2000/svg" xmlns:xlink="http://www.w3.org/1999/xlink" x="0px" y="0px"
	 viewBox="0 0 1000 1000" style="enable-background:new 0 0 1000 1000;" xml:space="preserve">
<style type="text/css">
	.st0{fill:#167073;}
</style>
<g id="L6KtPW.tif">
	<g>
		<path class="st0" d="M10.28,685.61c12.16-57.75,56.58-102.45,98.06-142.49c60.69-58.57,118-120.7,180.07-177.72
			c26.61-24.44,60.48-41.91,93.07-58.61c20.81-10.66,42.59-3.8,50.72,20.6c8.45,25.35-8.36,36.98-29.57,46.33
			c-18.71,8.24-38.9,16.88-53.17,30.75c-80.11,77.88-159.01,157.01-237.5,236.54c-36.3,36.78-44.27,86.49-23.71,130.11
			c20.11,42.65,65.38,72.06,112.05,63.41c27.43-5.09,57.23-18.83,77.38-37.78c77.37-72.77,151.42-149.07,226.38-224.38
			c31.17-31.31,46.45-68.18,37.28-113.22c-4.92-24.2,0.04-45.55,28.34-49.48c28.36-3.93,38.55,16.64,42.03,40.02
			c9.24,62-4.76,117.86-49.62,163.2c-50.68,51.23-100.91,102.91-152.18,153.57c-43.35,42.83-86.77,96.12-142.98,122.17
			c-65.57,30.38-148.89,17.21-201.9-31.91C23.05,817.8,2.09,758.23,7.8,701.54C8.35,696.12,9.18,690.81,10.28,685.61z"/>
		<path class="st0" d="M994.23,289.96c-0.57,42.5-20.36,87.48-57.51,124.77c-76.52,76.8-152.11,154.61-230.85,229.09
			c-23.82,22.53-55.68,37.74-85.88,52.01c-20.14,9.51-43.27,5.43-51.32-19.7c-7.78-24.3,6.4-37.46,28.99-46.71
			c19.81-8.11,40.48-18.39,55.57-33.04c78.57-76.27,156.25-153.51,232.75-231.86c67.18-68.81,38.04-174.2-52.97-195.41
			c-40.85-9.52-76.68,3.29-105.51,31.54C647.73,278.8,568.69,357.75,490.49,437.5c-29.17,29.75-40.91,66.26-31.08,108.57
			c5.44,23.41-2.28,42.76-27.83,46.99c-25.83,4.27-37.79-12.76-42.01-35.83c-11.33-62.03,1.63-118.46,45.98-163.92
			c81.06-83.08,162.8-165.58,246.52-245.96c56.53-54.28,124.97-65.85,197.77-37.08C949.82,137.94,994.01,205.8,994.23,289.96z"/>
	</g>
</g>
</svg>
