<?xml version="1.0" encoding="utf-8"?>
<!-- Generator: Adobe Illustrator 25.2.1, SVG Export Plug-In . SVG Version: 6.00 Build 0)  -->
<svg version="1.1" id="Layer_1" xmlns="http://www.w3.org/2000/svg" xmlns:xlink="http://www.w3.org/1999/xlink" x="0px" y="0px"
	 viewBox="0 0 1000 1000" style="enable-background:new 0 0 1000 1000;" xml:space="preserve">
<style type="text/css">
	.st0{fill:url(#SVGID_1_);}
	.st1{fill:url(#SVGID_2_);}
</style>
<g>
	<linearGradient id="SVGID_1_" gradientUnits="userSpaceOnUse" x1="213.7904" y1="503.9232" x2="774.5916" y2="503.9232">
		<stop  offset="0" style="stop-color:#00DD90"/>
		<stop  offset="0.1927" style="stop-color:#00DE97"/>
		<stop  offset="0.4759" style="stop-color:#00E1AB"/>
		<stop  offset="0.8132" style="stop-color:#00E5CB"/>
		<stop  offset="1" style="stop-color:#00E8E0"/>
	</linearGradient>
	<path class="st0" d="M762.58,303.09c-8.85-8.34-27.24-18.87-50.74,4.59L511.41,508.06c-28.64,28.66-57.2,57.39-86.27,86.62
		l-35.58,35.78l-31.79-34.67c-27.24-29.7-53.52-58.37-79.95-86.94c-9.15-9.9-18.79-15.04-28.59-15.3
		c-8.57-0.73-16.79,3.33-24.26,10.59c-15.28,14.79-14.88,33.97,1.04,51.31c44.62,48.61,89.39,97.12,134.46,145.28
		c8.4,8.97,17.44,13.59,26.87,13.76c0.17,0,0.37,0.01,0.53,0.01c9.41-0.01,18.65-4.47,27.46-13.24
		c89.27-88.95,178.63-177.86,267.96-266.77l76.64-76.24l1.91-2.02C778.59,337.77,778.84,318.41,762.58,303.09z"/>
	<g>
		<linearGradient id="SVGID_2_" gradientUnits="userSpaceOnUse" x1="31.2946" y1="499.6901" x2="968.6747" y2="499.6901">
			<stop  offset="0" style="stop-color:#00DD90"/>
			<stop  offset="0.1927" style="stop-color:#00DE97"/>
			<stop  offset="0.4759" style="stop-color:#00E1AB"/>
			<stop  offset="0.8132" style="stop-color:#00E5CB"/>
			<stop  offset="1" style="stop-color:#00E8E0"/>
		</linearGradient>
		<path class="st1" d="M499.98,968.38c-258.44,0-468.69-210.25-468.69-468.69S241.55,31,499.98,31s468.69,210.25,468.69,468.69
			S758.42,968.38,499.98,968.38z M499.98,88.51c-226.73,0-411.18,184.46-411.18,411.18s184.44,411.18,411.18,411.18
			s411.18-184.46,411.18-411.18S726.72,88.51,499.98,88.51z"/>
	</g>
</g>
</svg>
