<?xml version="1.0" encoding="utf-8"?>
<!-- Generator: Adobe Illustrator 25.2.1, SVG Export Plug-In . SVG Version: 6.00 Build 0)  -->
<svg version="1.1" id="Layer_1" xmlns="http://www.w3.org/2000/svg" xmlns:xlink="http://www.w3.org/1999/xlink" x="0px" y="0px"
	 viewBox="0 0 1000 1000" style="enable-background:new 0 0 1000 1000;" xml:space="preserve">
<style type="text/css">
	.st0{fill:#D10023;}
</style>
<g>
	<g>
		<path class="st0" d="M499.98,975C242.86,975,33.67,765.82,33.67,508.69S242.86,42.38,499.98,42.38s466.31,209.18,466.31,466.31
			S757.11,975,499.98,975z M499.98,99.6C274.4,99.6,90.89,283.12,90.89,508.69S274.4,917.78,499.98,917.78
			s409.09-183.52,409.09-409.09S725.57,99.6,499.98,99.6z"/>
	</g>
	<path class="st0" d="M665.79,630.28L544.2,508.69L665.79,387.1c12.21-12.21,12.21-32.01,0-44.21c-12.21-12.21-32.01-12.21-44.21,0
		L499.98,464.48L378.39,342.89c-12.21-12.21-32.01-12.21-44.21,0c-12.21,12.21-12.21,32.01,0,44.21l121.59,121.59L334.18,630.28
		c-12.21,12.21-12.21,32.01,0,44.21c12.21,12.21,32.01,12.21,44.21,0l121.59-121.59L621.57,674.5c12.21,12.21,32.01,12.21,44.21,0
		C678,662.29,678,642.49,665.79,630.28z"/>
</g>
</svg>
