<?xml version="1.0" encoding="utf-8"?>
<!-- Generator: Adobe Illustrator 25.2.1, SVG Export Plug-In . SVG Version: 6.00 Build 0)  -->
<svg version="1.1" id="Layer_1" xmlns="http://www.w3.org/2000/svg" xmlns:xlink="http://www.w3.org/1999/xlink" x="0px" y="0px"
	 viewBox="0 0 1000 1000" style="enable-background:new 0 0 1000 1000;" xml:space="preserve">
<style type="text/css">
	.st0{fill:#C1272D;}
</style>
<path class="st0" d="M29.94,272.17l439.24,506.81c7.72,8.91,18.94,14.02,30.68,14.02c11.75,0,22.96-5.11,30.68-14.02l439.24-506.81
	c14.72-16.94,12.87-42.6-4.09-57.26c-4.79-4.18-10.35-6.66-16.14-8.18l1.32-1.63h-14.51c-0.04,0-0.08,0-0.12,0H63.59
	c-0.19,0-0.37,0.03-0.58,0h-0.85l0.08,0.1c-9.99-0.41-20.15,2.63-28.21,9.71C17.07,229.57,15.22,255.23,29.94,272.17z"/>
</svg>
