<?xml version="1.0" encoding="utf-8"?>
<!-- Generator: Adobe Illustrator 25.2.1, SVG Export Plug-In . SVG Version: 6.00 Build 0)  -->
<svg version="1.1" id="Layer_1" xmlns="http://www.w3.org/2000/svg" xmlns:xlink="http://www.w3.org/1999/xlink" x="0px" y="0px"
	 viewBox="0 0 1000 1000" style="enable-background:new 0 0 1000 1000;" xml:space="preserve">
<style type="text/css">
	.st0{fill:#B2B2B2;}
</style>
<g>
	<path class="st0" d="M368.95,741.88c0.8,0,1.61-0.01,2.41-0.02c37.99-0.61,75.13-16.9,101.91-44.69
		c26.36-27.36,40.45-62.59,39.66-99.2c-0.87-40.65-16.99-77.76-45.38-104.5c-26.42-24.88-62.1-39.09-98.06-39.09
		c-0.4,0-0.79,0-1.19,0c-38.89,0.34-75.19,15.78-102.22,43.49c-26.41,27.06-41.23,63.31-40.67,99.45
		c-0.4,38.3,15.03,75.84,42.34,103.01C294.75,727.18,330.6,741.88,368.95,741.88z M376.23,615.85c7.34-7.2,10.55-14.9,10.41-24.98
		c-0.33-23.18-0.28-46.77-0.22-69.59c0.02-8.86,0.04-17.71,0.04-26.57v-3.77c31.68,2.54,71.48,29.31,85.82,71.75
		c8.08,23.9,7.95,48.87-0.38,72.19c-8.33,23.34-24.03,42.71-45.4,56.04c-19.92,12.42-43,17.95-66.74,16.01
		c-20.63-1.69-39.71-8.93-54.14-20.49c5.8-5.83,11.6-11.66,17.39-17.49C340.38,651.46,358.34,633.38,376.23,615.85z M269.32,553.03
		c17.44-37.93,54.07-59.6,82.58-62.22c0.04,0.59,0.07,1.16,0.07,1.72l0.01,12.54c0.02,26.97,0.04,54.85-0.11,82.27
		c-0.01,1.94-0.81,4.31-1.77,5.29c-19.85,20.1-40.19,40.39-59.86,60.01l-9.24,9.22C264.22,641.93,249.69,595.73,269.32,553.03z"/>
	<path class="st0" d="M616.97,794.61c-4.04-2.18-9.02-2.47-12.91-2.48c-48.37-0.1-97.55-0.09-145.12-0.09l-62.88,0
		c-49.21,0-98.42,0-147.63,0.01h-0.69c-2.21,0-4.49,0-6.79,0.17c-7.66,0.57-12.96,5.12-14.94,12.81c-2.03,7.93,0.83,14.77,7.65,18.3
		c3.64,1.88,8.28,2.97,12.73,2.97c108.11,0.12,218.03,0.11,324.32,0.1l33.94,0c0.39,0,0.78,0.01,1.18,0.02
		c0.43,0.01,0.87,0.02,1.33,0.02c1.1,0,2.28-0.06,3.46-0.33c9.97-2.28,13.28-8.53,14.3-13.37
		C626.58,804.96,623.6,798.18,616.97,794.61z"/>
	<path class="st0" d="M616.97,384.05c-4.04-2.18-9.02-2.47-12.91-2.48c-48.37-0.1-97.55-0.09-145.12-0.09l-49.46,0
		c-53.68,0-107.37,0-161.05,0.01h-0.67c-2.22-0.01-4.5,0-6.8,0.17c-7.66,0.57-12.96,5.12-14.94,12.82
		c-2.03,7.92,0.83,14.77,7.65,18.3c3.64,1.88,8.27,2.97,12.73,2.97c108.86,0.12,219.53,0.11,326.57,0.1l31.7,0c0,0,0,0,0,0
		c0.39,0,0.78,0.01,1.18,0.02c0.43,0.01,0.87,0.02,1.33,0.02c1.1,0,2.28-0.06,3.46-0.33c9.97-2.29,13.28-8.53,14.3-13.37
		C626.58,394.41,623.6,387.63,616.97,384.05z"/>
	<path class="st0" d="M616.97,308.4c-4.04-2.18-9.02-2.47-12.91-2.48c-48.37-0.1-97.55-0.09-145.12-0.09l-49.46,0
		c-53.68,0-107.37,0-161.05,0.01h-0.67c-2.22-0.01-4.5,0-6.8,0.17c-7.66,0.57-12.96,5.12-14.94,12.82
		c-2.03,7.92,0.83,14.77,7.65,18.3c3.64,1.88,8.27,2.97,12.73,2.97c108.86,0.12,219.53,0.11,326.57,0.1l31.7,0c0,0,0,0,0,0
		c0.39,0,0.78,0.01,1.18,0.02c0.43,0.01,0.87,0.02,1.33,0.02c1.1,0,2.28-0.06,3.46-0.33c9.97-2.29,13.28-8.53,14.3-13.37
		C626.58,318.76,623.6,311.98,616.97,308.4z"/>
	<path class="st0" d="M552.38,488.75c9.22,0.1,18.51,0.16,27.82,0.16c9.18,0,18.38-0.05,27.52-0.15
		c10.07-0.11,17.64-7.53,17.6-17.24c-0.04-9.79-7.27-16.78-17.58-16.99c-6.51-0.13-13.1-0.1-19.49-0.07
		c-2.74,0.01-5.47,0.03-8.21,0.03c-2.83,0-5.69-0.01-8.53-0.02c-6.27-0.03-12.76-0.06-19.16,0.07c-10.06,0.2-17.69,7.51-17.74,16.99
		C534.56,480.91,542.53,488.64,552.38,488.75z"/>
	<path class="st0" d="M552.38,573.15c9.23,0.1,18.52,0.16,27.82,0.16c9.19,0,18.38-0.05,27.52-0.15
		c10.07-0.11,17.64-7.52,17.6-17.24c-0.04-9.79-7.27-16.78-17.58-16.99c-6.51-0.13-13.1-0.1-19.49-0.07
		c-2.74,0.01-5.47,0.03-8.21,0.03c-2.83,0-5.69-0.01-8.53-0.02c-6.27-0.03-12.76-0.06-19.16,0.07c-10.06,0.2-17.69,7.51-17.74,16.99
		C534.56,565.31,542.53,573.03,552.38,573.15z"/>
	<path class="st0" d="M607.78,623.32c-6.48-0.14-13.04-0.1-19.39-0.07c-2.77,0.01-5.54,0.03-8.31,0.03c-2.82,0-5.66-0.01-8.49-0.02
		c-6.29-0.03-12.79-0.06-19.2,0.07c-10.05,0.2-17.69,7.48-17.78,16.94c-0.09,9.41,7.86,17.16,17.73,17.28
		c9.14,0.11,18.44,0.16,27.85,0.16c9.09,0,18.27-0.05,27.48-0.15c10.07-0.11,17.66-7.5,17.65-17.19
		C625.31,630.7,617.93,623.53,607.78,623.32z"/>
	<path class="st0" d="M607.93,707.73c-6.26-0.14-12.6-0.11-18.74-0.08c-2.77,0.01-5.51,0.03-8.31,0.03c-2.8,0-5.59-0.01-8.39-0.03
		c-6.54-0.03-13.29-0.06-19.96,0.06c-10,0.18-17.71,7.38-17.92,16.76c-0.1,4.43,1.6,8.68,4.79,11.98c3.35,3.47,7.89,5.41,12.78,5.47
		c9.75,0.12,19.11,0.18,28.19,0.18c9.53,0,18.75-0.07,27.81-0.2c4.81-0.07,9.22-1.95,12.41-5.3c3.18-3.34,4.84-7.76,4.69-12.47
		C624.97,714.69,617.83,707.94,607.93,707.73z"/>
	<path class="st0" d="M818.2,200.7c0.07-19.94-5.89-38.04-17.25-52.36C778.85,120.51,749.83,121,718.19,121
		c-27.68,0-55.36,0-83.05,0c-69.68,0-139.36,0-209.04,0c-33.56,0-67.13,0-100.69,0c-12.93,0-25.76,2.87-37.23,8.84
		c-8.45,4.4-15.38,9.93-21.15,16.79c-8.15,9.7-13.41,19.9-15.93,30.91c-5.89,1.46-11.61,3.58-17.02,6.4
		c-8.45,4.4-15.38,9.93-21.15,16.79c-8.15,9.7-13.41,19.9-15.93,30.91c-5.89,1.46-11.61,3.58-17.02,6.4
		c-8.45,4.4-15.38,9.93-21.15,16.79c-11.26,13.4-17.03,27.75-17.63,43.87c-0.09,2.41-0.13,4.96-0.13,8.03
		c0,46.07,0,92.13,0.01,138.2c0.01,127.13,0.03,258.59-0.1,387.88c-0.03,30.34,11.63,52.47,35.64,67.65
		c11.03,6.97,23.68,10.36,38.67,10.36c0.02,0,0.05,0,0.07,0c19.58-0.01,39.15-0.01,58.73-0.01l118.88,0.01
		c30.86,0,62.11,0.01,93.55,0.01c49.21,0,98.84-0.01,147.96-0.03c36.1-0.02,64.86-22.44,73.12-56.31
		c26.93-6.42,47.35-26.43,54.1-54.1c28.58-6.81,49.85-28.93,55.2-59.27c0.98-5.57,0.98-11.26,0.98-16.77v-0.87
		c0.01-50.91-0.01-101.81-0.03-152.72C817.81,449.46,817.76,324.05,818.2,200.7z M675.26,768.25c0,11.36,0,22.81,0,34.37
		c0,6.55,0,13.14,0,19.75c0,4.13,0,8.25,0,12.4c0,8.38-1.82,15.77-5.17,21.92c-6.68,12.26-19.46,19.56-36.18,19.7
		c-15.69,0.13-31.66,0.1-47.1,0.07c-6.91-0.01-13.83-0.03-20.74-0.03l-89.29,0c-85.98,0-171.97,0-257.95-0.01
		c-21.28,0-35.89-9.59-41.15-26.99c-1.35-4.46-2.01-9.67-2.02-15.92c-0.1-71.68-0.1-144.56-0.09-215.05l0-49.27l0-70.49l0-193.84
		c0-16.58,7.29-29.37,19.63-36.09c5.84-3.18,12.8-5,20.66-5.22c0.3-0.01,0.61-0.01,0.91-0.01l0.32,0l12.58,0l19.63,0l34.47,0
		l34.71,0c103.25-0.01,210.02-0.01,315.04,0.03c19.77,0.01,34.58,10.19,39.62,27.25c1.34,4.55,2.06,9.84,2.06,15.3
		C675.27,453.61,675.28,600.03,675.26,768.25z M729.35,780.68c0,8.38-1.82,15.77-5.17,21.92c-3.37,6.18-8.29,11.1-14.48,14.47
		c0-4.82,0-9.64,0-14.46c0-11.44,0-22.88-0.01-34.31c-0.01-29.78,0-59.57-0.02-89.35c-0.05-121.29-0.1-246.7,0.34-370.05
		c0.07-19.94-5.89-38.04-17.25-52.36c-24.05-30.31-58.83-26.56-93.17-26.64c-32.98-0.07-65.95-0.15-98.93-0.22
		c-64.99-0.14-129.98-0.29-194.98-0.43c-7.31-0.02-14.63-0.03-21.94-0.05h-34.47h-14.52c3.37-6.18,8.3-11.11,14.52-14.5
		c5.84-3.18,12.8-5,20.66-5.22c0.3-0.01,0.61-0.01,0.91-0.01l0.32,0l12.58,0l88.81,0c103.25-0.01,205.02,3.99,310.04,4.03
		c19.77,0.01,34.58,10.19,39.62,27.25c1.34,4.55,2.06,9.84,2.06,15.3c0.1,163.07,5.11,320.86,5.08,512.24
		C729.35,772.41,729.35,776.53,729.35,780.68z M783.44,726.59c0,16.8-7.3,29.66-19.65,36.39c0.01-46.04-0.01-92.09-0.03-138.13
		c-0.05-121.29-0.1-246.7,0.34-370.05c0.07-19.94-5.89-38.04-17.25-52.36c-21.11-26.6-49.36-27.34-79.75-27.34
		c-27.29,0-54.59,0-81.88,0c-68.77,0-137.53,0-206.3,0c-21.66,0-43.32,0-64.98,0c-2.13,0-24.07-1.85-25.08,0
		c6.52-11.99,18.94-19.28,35.18-19.72c0.3-0.01,0.61-0.01,0.91-0.01l0.32,0l101.39,0c103.25-0.01,210.02-0.01,315.04,0.03
		c19.77,0.01,34.58,10.19,39.62,27.25c1.34,4.55,2.06,9.84,2.06,15.3C783.47,364.53,783.47,529.75,783.44,726.59z"/>
</g>
</svg>
