<svg width="22" height="22" viewBox="0 0 22 22" fill="none" xmlns="http://www.w3.org/2000/svg">
<path d="M5.53906 13.1299C6.66359 13.1299 7.5752 12.2183 7.5752 11.0938C7.5752 9.96922 6.66359 9.05762 5.53906 9.05762C4.41454 9.05762 3.50293 9.96922 3.50293 11.0938C3.50293 12.2183 4.41454 13.1299 5.53906 13.1299Z" stroke="#1F1F1F" stroke-width="1.35742" stroke-linecap="round" stroke-linejoin="round"/>
<path d="M16.3984 7.02148C17.523 7.02148 18.4346 6.10988 18.4346 4.98535C18.4346 3.86083 17.523 2.94922 16.3984 2.94922C15.2739 2.94922 14.3623 3.86083 14.3623 4.98535C14.3623 6.10988 15.2739 7.02148 16.3984 7.02148Z" stroke="#1F1F1F" stroke-width="1.35742" stroke-linecap="round" stroke-linejoin="round"/>
<path d="M16.3984 19.2383C17.523 19.2383 18.4346 18.3267 18.4346 17.2021C18.4346 16.0776 17.523 15.166 16.3984 15.166C15.2739 15.166 14.3623 16.0776 14.3623 17.2021C14.3623 18.3267 15.2739 19.2383 16.3984 19.2383Z" stroke="#1F1F1F" stroke-width="1.35742" stroke-linecap="round" stroke-linejoin="round"/>
<path d="M7.31543 12.0918L14.626 16.2039M14.626 5.9834L7.31543 10.0955" stroke="#1F1F1F" stroke-width="1.35742" stroke-linecap="round" stroke-linejoin="round"/>
</svg>
